<svg width="59" height="63" viewBox="0 0 59 63" fill="none" xmlns="http://www.w3.org/2000/svg">
<g clip-path="url(#clip0_1_761)">
<path d="M9.48255 40.7178L8.46294 36.607L6.29727 36.7018L4.5837 34.2524L7.81088 33.4952L9.20909 34.8199L12.1422 34.778L9.48255 40.7178ZM58.3822 42.2645C58.4469 42.1013 58.5248 41.9028 58.4932 41.6654C58.4454 41.3147 58.1859 41.0971 58.0227 40.9376C57.8499 40.7685 57.6154 40.3547 57.1472 39.5277C56.6708 38.6867 56.3716 37.5656 55.774 35.3257C55.7541 35.25 55.6997 35.0464 55.5247 34.8832C55.3388 34.7097 55.1145 34.6744 55.0454 34.6619C54.7382 34.606 54.0648 34.3686 52.5387 33.6577C52.0719 32.9395 51.7175 32.3411 51.4882 31.9434C51.0905 31.2531 50.5333 30.2364 48.8248 26.5711C48.569 26.022 48.3544 25.5581 48.2015 25.2259C48.1772 25.1737 48.1544 25.1244 48.1338 25.0781C48.9167 25.5243 49.6033 25.7831 50.0782 25.9352C50.9067 26.2006 52.2792 26.6226 53.8935 26.2947C54.7543 26.1198 55.2351 25.8279 55.5064 25.6133C55.7762 25.3993 56.376 24.9046 56.437 24.1482C56.487 23.5255 56.1437 23.0594 55.7365 22.5081C55.2211 21.8097 54.5956 21.4223 54.3633 21.2827C53.4546 20.7343 53.2253 20.8519 52.1424 20.2505C51.5507 19.9219 51.153 19.6279 50.9354 19.4581C50.137 18.834 49.4409 18.2687 49.5438 17.8452C49.7107 17.1579 51.8381 17.51 54.1148 16.214C54.5684 15.956 54.8131 15.7722 55.055 15.4399C56.3518 13.655 54.4941 10.7888 54.2809 10.6668C54.2714 10.6609 54.2655 10.6616 54.2625 10.6623C54.1346 10.6932 54.8315 12.1995 54.4471 13.0993C53.9972 14.152 52.3953 13.6124 50.4215 14.9268C49.8268 15.3223 48.6021 16.1375 48.4742 17.3858C48.3279 18.8193 49.7121 20.0102 49.9591 20.2226C51.5632 21.6024 53.7149 21.6002 54.6735 22.8933C54.7639 23.0153 54.8558 23.2366 54.9072 23.5123C55.0307 24.1687 54.1177 24.7355 53.5524 24.959C53.2973 25.0597 52.7769 25.2185 51.5896 25.0053C49.4784 24.6253 47.6729 23.5035 47.6729 23.5035L47.2061 23.1727L45.4889 21.9553C44.7001 21.5267 43.9113 21.0989 43.1225 20.6703C42.0345 20.0793 40.8201 19.758 39.5814 19.7338C37.5635 19.6941 35.5456 19.6544 33.5277 19.6147L29.0765 17.5409C29.5279 16.9881 29.8778 15.9839 29.9153 15.7163C29.952 15.4487 29.5837 15.2458 29.3713 15.0341C29.1588 14.8224 26.4499 10.6013 26.4499 10.6013C26.4499 10.6013 28.1914 10.0022 29.758 9.65228C31.3245 9.30163 32.0618 8.39008 33.0013 7.5785C33.9416 6.76766 34.3098 6.03989 34.3098 6.03989C34.3098 6.03989 35.4706 2.88842 35.4618 2.62084C35.453 2.35325 33.4527 5.20112 33.1028 5.58779C32.7529 5.9752 32.9094 5.79951 30.882 6.52801C28.8545 7.25578 24.4217 7.47706 24.2012 7.34841C23.9799 7.21903 19.1972 5.93844 19.1972 5.93844C19.1972 5.93844 19.1141 5.98476 19.345 5.80906C19.5751 5.6341 23.0676 2.86931 23.3903 2.50983C23.7131 2.15036 24.6805 0.436052 24.6805 0.436052C24.6805 0.436052 24.8466 0.178024 24.8282 0.0118861C24.8099 -0.154252 23.0316 1.24689 22.2847 1.69826C21.5386 2.14962 17.4557 3.39418 16.5346 3.73455C15.6127 4.07564 14.0278 5.27389 13.7698 5.59588C13.5118 5.9186 14.1844 7.55865 14.1844 7.55865L10.2125 9.33765L5.39307 15.309L3.51336 21.4003L3.08919 22.9573L4.4896 27.7951C4.4896 27.7951 0.775762 31.6927 0.324397 32.2367C-0.126969 32.7807 0.020056 33.2321 0.020056 33.2321C0.020056 33.2321 0.499356 35.0471 0.664758 35.508C0.830896 35.9689 4.16688 38.4382 4.16688 38.4382L4.1757 38.4948C4.67338 40.1003 5.91647 40.2356 5.91647 40.2356L9.5568 40.8237L5.69006 45.6623L10.6874 45.8431L13.042 42.8313L12.8105 41.3361L17.4211 36.3688L30.1851 33.9121L33.0329 37.5436L30.5409 39.8048L28.1907 40.909L25.8229 44.3449L30.202 44.1134L31.3061 42.5108L33.7453 40.748L38.9985 37.5252C38.9404 36.7724 38.8816 36.0197 38.8235 35.2676C39.7299 34.9545 40.6356 34.6406 41.542 34.3274C43.4246 35.1044 45.308 35.8815 47.1907 36.6592C48.7447 36.7452 50.2995 36.8312 51.8535 36.9172C53.6215 39.2976 54.3037 40.1033 54.5441 40.2995C54.5544 40.3076 54.5728 40.3223 54.597 40.3436C54.597 40.3436 54.7551 40.4811 54.8852 40.6774C54.9888 40.8332 55.1719 41.3096 55.2322 41.9786C55.1079 42.5159 54.9411 43.107 54.7146 43.7355C54.4243 44.5412 54.0964 45.2418 53.7774 45.8343C55.4652 45.8372 55.8747 45.9019 57.5691 45.8233C57.5809 45.7115 57.9014 44.9602 57.9176 44.686C57.9529 44.0832 57.7955 43.5356 57.8161 43.0364C58.0073 42.8732 58.2366 42.6211 58.3778 42.2623L58.3822 42.2645Z" fill="#0059D8"/>
<path d="M22.7145 25.8653L21.3862 30.6531L25.0927 27.3789L22.7145 25.8653Z" fill="#45B9FD"/>
<path d="M21.3472 30.7156L22.7021 25.8322L25.128 27.376L25.1074 27.3943L21.348 30.7156H21.3472ZM22.7271 25.8984L21.4252 30.5907L25.0574 27.3818L22.7263 25.8984H22.7271Z" fill="#005499"/>
<path d="M22.7609 25.68L25.2625 27.2708L26.2667 24.4134L23.8106 20.4754L22.7609 25.68Z" fill="#99E1FD"/>
<path d="M25.2735 27.3025L22.7374 25.6896L22.7403 25.6756L23.8011 20.4188L26.2902 24.4105L25.2743 27.3025H25.2735ZM22.7844 25.6697L25.2522 27.2385L26.2439 24.4156L23.8217 20.5305L22.7851 25.669L22.7844 25.6697Z" fill="#005499"/>
<path d="M24.0025 20.2467L26.5085 24.1554L30.8347 23.9768L30.4172 22.1264L23.926 20.1063L24.0025 20.2467Z" fill="#9DE2FC"/>
<path d="M26.4975 24.1774L26.4909 24.1672L23.9841 20.257L23.8834 20.071L30.4348 22.1103L30.8605 23.9966L26.4968 24.1774H26.4975ZM24.0201 20.2365L26.5196 24.1341L30.8083 23.9569L30.3988 22.1434L23.9687 20.1424L24.0194 20.2365H24.0201Z" fill="#005499"/>
<path d="M16.0771 22.9094L18.3163 17.3114L23.6195 20.0328L20.1674 21.961L16.0771 22.9094Z" fill="#A4E4FB"/>
<path d="M16.0426 22.9395L18.3053 17.282L23.6636 20.0321L20.171 21.9816L16.0419 22.9395H16.0426ZM18.3274 17.3401L16.1117 22.88L20.16 21.9412L23.5754 20.0336L18.3281 17.3408L18.3274 17.3401Z" fill="#005499"/>
<path d="M11.6914 22.272L17.7253 18.0267L15.8904 22.8322L11.5517 22.4279L11.6914 22.272Z" fill="#A0E4FC"/>
<path d="M15.9044 22.8542L11.5076 22.4448L11.6789 22.2551L17.7694 17.9701L15.9044 22.855V22.8542ZM11.5951 22.4102L15.8764 22.8094L17.6812 18.0833L11.7054 22.2882L11.5951 22.4109V22.4102Z" fill="#005499"/>
<path d="M12.3442 26.9841L15.5949 23.1431L11.7539 22.6763L12.3442 26.9841Z" fill="#9AE1FC"/>
<path d="M12.3302 27.0334L11.7289 22.6521L15.6361 23.1262L12.3302 27.0334ZM11.7781 22.7006L12.3589 26.9349L15.5537 23.1593L11.7781 22.7006Z" fill="#005499"/>
<path d="M12.1266 27.7149L15.8279 23.1894L16.2322 29.3792L13.4799 28.4617L12.1266 27.7149Z" fill="#9CE2FB"/>
<path d="M16.2558 29.4093L13.4697 28.4801L12.0942 27.7215L15.8456 23.135L16.2558 29.4093ZM13.488 28.4426L16.2095 29.3498L15.8103 23.2446L12.1589 27.709L13.488 28.4426Z" fill="#005499"/>
<path d="M16.5873 28.8955L19.7535 22.372L21.8956 25.7616L16.5557 29.1197" fill="#4FC0FA"/>
<path d="M16.5667 29.1373L16.5447 29.102L21.867 25.755L19.7557 22.4154L16.6064 28.905L16.5689 28.8866L19.7505 22.3293L21.925 25.7682L21.9067 25.78L16.5667 29.1373Z" fill="#005499"/>
<path d="M16.2028 23.0718L16.3793 28.9124L19.4506 22.2661L16.2028 23.0718Z" fill="#25A4FA"/>
<path d="M16.3609 29.0021L16.1815 23.0549L19.4881 22.2345L19.4697 22.2742L16.3609 29.0013V29.0021ZM16.2242 23.088L16.3969 28.8227L19.4124 22.297L16.2234 23.088H16.2242Z" fill="#005499"/>
<path d="M11.9715 21.8765L15.7632 12.9257L16.2014 18.2656L11.9715 21.8765Z" fill="#1093F9"/>
<path d="M15.9448 12.797L18.8596 16.3307L21.4134 12.8999L15.9448 12.797Z" fill="#44B9FE"/>
<path d="M18.861 16.3646L15.9 12.775L21.4553 12.8801L18.861 16.3653V16.3646ZM15.9904 12.8191L18.8588 16.2969L21.3722 12.9205L15.9904 12.8191Z" fill="#005499"/>
<path d="M18.8596 16.7174L21.5942 13.1837L25.4632 17.3629L18.8596 16.7174Z" fill="#36B0FC"/>
<path d="M25.5161 17.3886L18.8199 16.7343L21.5928 13.1506L25.5161 17.3879V17.3886ZM18.9 16.7005L25.4102 17.3364L21.5957 13.2168L18.9 16.7012V16.7005Z" fill="#005499"/>
<path d="M16.3837 29.7952L12.9014 36.8892L21.0267 31.0082L16.3837 29.7952Z" fill="#0071EC"/>
<path d="M20.9753 35.3932L25.1794 29.7438L21.3362 31.0082L20.9753 35.3932Z" fill="#0072EA"/>
<path d="M20.9481 35.4645L21.3164 30.992L25.236 29.7034L20.9481 35.4645ZM21.3561 31.0236L21.0025 35.3219L25.1236 29.785L21.3568 31.0236H21.3561Z" fill="#005499"/>
<path d="M21.7229 30.5436L25.5404 27.3194L28.636 27.4995V30.4142L24.9214 29.6151L21.7229 30.5436Z" fill="#40B5FB"/>
<path d="M21.6339 30.5914L25.5338 27.298H25.5418L28.6573 27.4803V30.4407L24.9229 29.6365L21.6347 30.5914H21.6339ZM25.5477 27.3407L21.8118 30.4958L24.9207 29.5931L24.9258 29.5946L28.6146 30.3885V27.5193L25.5477 27.3407Z" fill="#005499"/>
<path d="M12.847 31.8617L9.44193 34.3118L11.9178 28.1986L12.847 31.8617Z" fill="#0071EC"/>
<path d="M7.07336 28.0376L11.4135 22.5543L11.7657 27.4362L7.07336 28.0376Z" fill="#0081F6"/>
<path d="M7.02484 28.0648L11.4304 22.4984L11.7877 27.4546L7.02484 28.0648ZM11.3966 22.6094L7.12261 28.0104L11.7436 27.4186L11.3973 22.6102L11.3966 22.6094Z" fill="#005499"/>
<path d="M7.76289 19.2992L7.07335 27.6413L11.3106 22.4367L7.76289 19.2992Z" fill="#007FF7"/>
<path d="M11.3547 22.2757L7.7776 19.05L15.5626 12.7309L11.3547 22.2757Z" fill="#26A7FC"/>
<path d="M11.3621 22.3102L7.74452 19.0485L15.617 12.6588L11.3621 22.3102ZM7.80921 19.0507L11.3466 22.2404L15.5074 12.8014L7.80848 19.0507H7.80921Z" fill="#005499"/>
<path d="M16.1933 12.6279L20.1372 9.95944L21.2517 12.6132L16.1933 12.6279Z" fill="#4EBEFB"/>
<path d="M16.1242 12.6493L20.1468 9.92783L21.2833 12.6346L16.1242 12.6493ZM20.1277 9.99105L16.2616 12.6066L21.2193 12.5919L20.1269 9.99105H20.1277Z" fill="#005499"/>
<path d="M18.2406 5.79791L20.5768 9.15301L23.9091 7.62984L18.2406 5.79791Z" fill="#99E0FE"/>
<path d="M20.5702 9.17947L18.1877 5.75895L23.9672 7.62616L20.5702 9.17947ZM18.2935 5.83687L20.5849 9.12655L23.8518 7.63278L18.2943 5.83687H18.2935Z" fill="#005499"/>
<path d="M16.0977 6.83884L18.5023 6.53083L20.232 9.24343L16.0977 6.83884Z" fill="#97E1FD"/>
<path d="M20.2967 9.30518L16.0338 6.82561L18.5133 6.50804L18.5207 6.51907L20.2975 9.30445L20.2967 9.30518ZM16.1617 6.85208L20.1681 9.18168L18.492 6.55362L16.1624 6.85208H16.1617Z" fill="#005499"/>
<path d="M20.6062 9.46103L23.9187 7.71658L24.8729 11.9097L20.6062 9.46103Z" fill="#99E2FA"/>
<path d="M24.9045 11.9516L20.5629 9.46029L23.9334 7.68497L24.9045 11.9516ZM20.6503 9.46176L24.842 11.8671L23.904 7.74746L20.6496 9.46176H20.6503Z" fill="#005499"/>
<path d="M25.3419 12.5544L26.7643 15.8537L29.6085 15.5162L25.3419 12.5544Z" fill="#88DAFC"/>
<path d="M26.7511 15.8764L25.2934 12.4956L29.6659 15.5309L26.7511 15.8764ZM25.3904 12.614L26.7776 15.8309L29.5512 15.5023L25.3904 12.614Z" fill="#005499"/>
<path d="M21.6178 12.7309L24.9023 12.1442L25.855 14.4312L21.6178 12.7309Z" fill="#56C8FD"/>
<path d="M25.894 14.4694L21.542 12.7228L24.9148 12.1207L25.8932 14.4694H25.894ZM21.6942 12.7382L25.8168 14.393L24.8898 12.1677L21.6942 12.7382Z" fill="#005499"/>
<path d="M14.3165 7.55485L15.1376 10.4726L20.1519 9.50513L15.7243 6.93882L14.3165 7.55485Z" fill="#1290F8"/>
<path d="M15.1222 10.4968L14.2908 7.54309L15.725 6.91603L15.7346 6.92118L20.2107 9.51543L15.1222 10.4975V10.4968ZM14.3415 7.56662L15.1524 10.4483L20.0924 9.49484L15.7221 6.96235L14.3408 7.56662H14.3415Z" fill="#005499"/>
<path d="M5.64354 15.2678L10.4821 9.37943L14.7951 10.6174L5.64354 15.2678Z" fill="#0083F9"/>
<path d="M5.56415 15.3317L10.4748 9.35517L14.8524 10.6115L5.56415 15.3317ZM10.4895 9.40369L5.72367 15.2038L14.7377 10.6233L10.4895 9.40442V9.40369Z" fill="#005499"/>
<path d="M5.56856 15.5302L7.7776 19.05L14.7951 10.6174L5.56856 15.5302Z" fill="#44B9FE"/>
<path d="M7.77466 19.0853L5.53842 15.5221L5.55827 15.5118L14.8789 10.5483L7.77393 19.086L7.77466 19.0853ZM5.5987 15.5383L7.77981 19.0139L14.7105 10.6857L5.5987 15.5376V15.5383Z" fill="#005499"/>
<path d="M24.1708 19.9931L28.6338 18.3428L30.2841 21.681L24.1708 19.9931Z" fill="#20A2F9"/>
<path d="M30.3238 21.7133L24.1025 19.9961L28.6448 18.317L30.3238 21.714V21.7133ZM24.2392 19.9902L30.2444 21.6479L28.6235 18.3692L24.2392 19.9902Z" fill="#005499"/>
<path d="M32.7005 21.9669L33.6613 19.8917L38.5601 20.0453L32.7005 21.9669Z" fill="#89E1FF"/>
<path d="M32.6608 22.0015L33.6473 19.8704H33.6613L38.6799 20.0284L32.6608 22.0022V22.0015ZM33.6745 19.913L32.7402 21.9316L38.4403 20.063L33.6745 19.9137V19.913Z" fill="#005499"/>
<path d="M32.5086 22.4279L39.1945 20.199L41 23.3497L38.4646 24.9059L37.811 23.3887L35.1403 23.5232L32.5086 22.4279Z" fill="#9EE3FC"/>
<path d="M38.4543 24.9368L37.7971 23.41L35.1367 23.5438L35.1323 23.5423L32.4483 22.4256L39.2041 20.174L39.2129 20.1887L41.0294 23.357L38.455 24.9368H38.4543ZM37.8243 23.3666L37.8302 23.3798L38.4741 24.8751L40.9721 23.3423L39.185 20.224L32.5689 22.4293L35.1447 23.5011L37.825 23.3659L37.8243 23.3666Z" fill="#005499"/>
<path d="M28.8771 18.259L30.5296 21.7552L33.0651 19.6417L28.8771 18.259Z" fill="#2FADFC"/>
<path d="M30.5223 21.789L28.8374 18.2237L33.1084 19.6344L30.5223 21.7898V21.789ZM28.9168 18.2943L30.5363 21.7221L33.0224 19.6506L28.9168 18.2943Z" fill="#005499"/>
<path d="M12.6566 36.8502L12.647 36.7826L12.353 34.6044L13.2631 31.6073L16.2719 29.5409L12.7353 36.9627L12.6566 36.8502Z" fill="#40B7FC"/>
<path d="M12.2523 27.992L12.8808 31.45L15.8338 29.4064L12.2523 27.992Z" fill="#1897F7"/>
<path d="M9.15375 34.3354L6.81827 28.3956L11.859 27.7222L9.15375 34.3354Z" fill="#0056DA"/>
<path d="M3.30365 22.9505L5.48182 15.686L7.54825 19.0316L3.30365 22.9505Z" fill="#006BE7"/>
<path d="M3.34848 23.0402L7.58132 19.133L6.88516 27.9692L6.66094 28.6315L5.07749 29.0021L3.34848 23.0402Z" fill="#006BE7"/>
<path d="M14.451 5.69867L18.0877 5.78983L18.4075 6.3963L15.9169 6.70138L14.451 5.69867Z" fill="#80D8FF"/>
<path d="M15.9117 6.72343L15.9051 6.71902L14.3805 5.67662L18.1002 5.76998L18.4398 6.41468L15.9117 6.72417V6.72343ZM14.5216 5.72146L15.922 6.67932L18.3744 6.37939L18.0745 5.81041L14.5216 5.72146Z" fill="#005499"/>
<path d="M10.7151 9.30445L14.1827 7.82391L14.9495 10.3829L10.7151 9.30445Z" fill="#0086F8"/>
<path d="M13.9622 6.1618L14.3386 7.38284L15.5074 6.90206L13.9622 6.1618Z" fill="#1290F8"/>
<path d="M24.4105 8.82515L25.0081 11.9965L28.3596 13.8674L26.2431 10.7247L24.4105 8.82515Z" fill="#79D4FE"/>
<path d="M28.4265 13.9291L24.989 12.0104L24.9875 12.0009L24.3767 8.75972L26.2608 10.7129L28.4265 13.9291ZM25.0265 11.9832L28.2927 13.8063L26.2262 10.7379L24.4436 8.88984L25.0265 11.9825V11.9832Z" fill="#005499"/>
<path d="M25.6117 17.1489L22.2353 13.7071L21.6119 12.9021L25.6506 14.5518L26.4946 15.8632L25.6117 17.1489Z" fill="#25A6FA"/>
<path d="M25.6146 17.182L22.2183 13.7203L21.5472 12.8529L25.6646 14.5341L26.5195 15.8632L25.6139 17.1813L25.6146 17.182ZM22.2507 13.6931L25.6087 17.1159L26.4696 15.8625L25.6367 14.5679L21.6766 12.9507L22.2514 13.6931H22.2507Z" fill="#005499"/>
<path d="M25.7028 17.4606L26.6114 15.9801L28.4037 17.6812L25.7028 17.4606Z" fill="#179DFC"/>
<path d="M28.4617 17.7069L25.6668 17.4783L26.607 15.9463L28.461 17.7062L28.4617 17.7069ZM25.7381 17.4423L28.3456 17.6554L26.6151 16.0132L25.7374 17.4423H25.7381Z" fill="#005499"/>
<path d="M23.6636 19.8887L25.5337 17.59L18.8713 16.9409L18.4949 17.2783L23.6636 19.8887Z" fill="#0078F4"/>
<path d="M28.6242 17.6944L29.6637 16.577L29.7931 15.6941L26.8584 15.9926L28.6242 17.6944Z" fill="#1296FA"/>
<path d="M28.4684 18.0186L25.7675 17.6554L23.7937 19.9931L28.5727 18.1744L28.4684 18.0186Z" fill="#0187F7"/>
<path d="M23.521 20.3048L19.988 22.3044L22.2088 25.6815L23.521 20.3048Z" fill="#2AA9FA"/>
<path d="M22.2176 25.733L19.9578 22.297L23.5519 20.2622L22.2169 25.733H22.2176ZM20.0181 22.3117L22.2 25.6293L23.4886 20.3467L20.0181 22.3117Z" fill="#005499"/>
<path d="M12.944 37.0766L21.1333 31.1854L16.8475 36.6576L12.944 37.0766Z" fill="#007AF3"/>
<path d="M21.0422 31.6051L17.5224 36.3474L20.7503 35.5814L21.0422 31.6051Z" fill="#0075F0"/>
<path d="M16.5006 29.3432L22.4654 25.9322L20.9878 30.6745L16.4278 29.5071L16.5006 29.3432Z" fill="#0075EF"/>
<path d="M21.2796 35.3623L25.3287 29.8724L29.4328 30.8207L30.8921 30.6568L25.128 34.2133L21.2796 35.3623Z" fill="#0063DE"/>
<path d="M22.7748 35.1433L25.2191 34.3589L30.3084 31.2581L31.0376 30.8024L32.3329 33.4106L22.7748 35.1433Z" fill="#0079EF"/>
<path d="M30.673 29.1792L32.5336 33.3378L35.3241 31.7507L30.673 29.1792Z" fill="#0081F5"/>
<path d="M32.5233 33.3672L30.6274 29.13L35.366 31.7499L35.3337 31.7683L32.5226 33.3665L32.5233 33.3672ZM30.7178 29.2277L32.5431 33.3077L35.2807 31.7507L30.7178 29.2277Z" fill="#005499"/>
<path d="M33.2996 27.6288L31.6581 29.4894L34.9955 31.2949L33.2996 27.6288Z" fill="#3CB1FB"/>
<path d="M35.0411 31.3434L31.6242 29.4953L33.3047 27.5906L35.0411 31.3434ZM31.6911 29.4836L34.9499 31.2464L33.2937 27.6671L31.6911 29.4836Z" fill="#005499"/>
<path d="M35.0683 23.7437L33.5731 27.0268L35.4153 31.5323L38.0051 30.748L38.1146 26.3703L37.6765 23.6342L35.0683 23.7437Z" fill="#0081F5"/>
<path d="M35.4028 31.5573L35.3954 31.5397L33.5495 27.026L33.5532 27.018L35.0543 23.7231H35.0676L37.6942 23.6121L38.1352 26.3681V26.3703L38.0257 30.7627L38.011 30.7671L35.4028 31.5566V31.5573ZM33.5958 27.0275L35.427 31.5066L37.9845 30.7325L38.0933 26.3725L37.6589 23.657L35.0823 23.765L33.5958 27.0282V27.0275Z" fill="#005499"/>
<path d="M41.2514 23.8533L38.6432 25.0934L41.4888 26.4063L41.2514 23.8533Z" fill="#1DA0FB"/>
<path d="M44.4617 21.409L44.3705 24.6009L45.21 28.2309L46.3774 25.6227L44.4617 21.409Z" fill="#95E0FD"/>
<path d="M45.5379 28.4676L47.5264 23.926L47.9454 25.8778L48.1645 30.8391L45.5379 28.4676Z" fill="#7DD5FE"/>
<path d="M48.3836 26.1329L48.6754 31.2581L52.834 34.9793L48.3836 26.1329Z" fill="#3EB4FD"/>
<path d="M48.5291 31.6051L46.906 33.5017L53.1258 35.9828L48.5291 31.6051Z" fill="#37B0FC"/>
<path d="M53.2192 36.0423L46.8714 33.5106L48.5284 31.5742L48.5446 31.5897L53.2199 36.0423H53.2192ZM46.9413 33.4929L53.0325 35.9225L48.5313 31.6353L46.9413 33.4929Z" fill="#005499"/>
<path d="M46.8516 33.265L48.2924 31.514L45.3012 28.7051L45.4835 29.635L46.8516 33.265Z" fill="#7ED5FE"/>
<path d="M41.7263 26.6982L41.8718 31.6411L44.0243 32.699L46.5957 33.3378L44.8998 28.3404L41.7263 26.6982Z" fill="#006CE8"/>
<path d="M41.58 23.7805L41.6528 26.3152L44.6807 28.0486L41.58 23.7805Z" fill="#189BF7"/>
<path d="M41.5984 23.3063L44.6807 27.5561L44.0059 23.8533L44.2022 21.4678L40.9779 20.2416L41.5984 20.6062V23.3063Z" fill="#25A4FB"/>
<path d="M45.4034 22.2713L46.6031 25.125L47.2757 23.7614L45.4034 22.2713Z" fill="#99E0FE"/>
<path d="M26.4144 24.5979L28.2611 27.1238L25.5176 26.9878L26.4144 24.5979Z" fill="#048EF7"/>
<path d="M26.5769 24.3531L28.5603 27.0694L30.6245 24.1907L26.5769 24.3531Z" fill="#048EF7"/>
<path d="M6.74255 28.8256L8.9266 34.356L7.85847 33.1217L5.15248 29.2057L6.74255 28.8256Z" fill="#0078F0"/>
<path d="M5.05764 29.3476L3.60945 32.552L7.57323 32.8137L5.05764 29.3476Z" fill="#007AF2"/>
<path d="M4.55923 27.9949L4.86725 28.9682L3.34849 32.4814L0.381531 32.4571L4.55923 27.9949Z" fill="#007AF2"/>
<path d="M0.262436 32.8372L3.20587 32.8607L4.41661 38.344L2.06643 36.6113L0.856415 35.5196L0.61897 35.1396L0.262436 32.8372Z" fill="#0074EF"/>
<path d="M3.51462 32.7424L7.54971 33.0268L7.78715 33.2878L4.51144 34.0715L3.65723 34.1192L3.51462 32.7424Z" fill="#007AF3"/>
<path d="M3.75208 34.3089L4.58276 38.2492L6.22062 36.8958L4.36884 34.3089H3.75208Z" fill="#006EEC"/>
<path d="M4.53497 38.5932L6.49334 36.7774L7.63278 36.6708C7.63278 36.6708 8.29145 36.4929 8.41642 36.9201C8.54139 37.3472 9.3956 40.5163 9.3956 40.5163C9.3956 40.5163 8.54139 40.4097 7.57985 40.2671C6.61831 40.1245 4.83858 40.0715 4.53571 38.5939L4.53497 38.5932Z" fill="#006BE6"/>
<path d="M12.1545 34.9617L12.475 37.0266L12.9198 40.8721C12.9198 40.8721 12.7948 41.1926 12.8308 41.9226C12.8661 42.6525 12.9374 42.7591 12.9374 42.7591L10.6946 41.9402L9.91092 40.356L12.1538 34.9617H12.1545Z" fill="#006DEA"/>
<path d="M9.80506 40.6758C9.80506 40.6758 10.535 41.7792 10.3748 42.0284C10.2145 42.2776 6.28015 45.3578 6.28015 45.3578L5.97728 45.4467L9.80506 40.6758Z" fill="#006DEA"/>
<path d="M10.5343 42.2071L12.6706 42.9723C12.6706 42.9723 11.834 44.0052 11.6025 44.3073C11.3709 44.6102 10.8725 45.3578 10.6056 45.3931L10.5343 42.2063V42.2071Z" fill="#007AF4"/>
<path d="M10.5343 42.2071L10.6056 45.3938L6.44041 45.5364L10.5343 42.2071Z" fill="#0082F6"/>
<path d="M30.7046 33.9649L33.3393 37.3472L38.466 35.3175C38.466 35.3175 38.3947 34.2494 37.0061 34.0001C35.6174 33.7509 32.9475 33.4657 32.9475 33.4657L30.7046 33.9641V33.9649Z" fill="#0070ED"/>
<path d="M33.304 37.6317L33.6598 39.2342L33.0548 40.9787L38.8762 37.5074L38.5381 35.5138L33.304 37.6317Z" fill="#0070ED"/>
<path d="M33.0548 37.703L33.2327 39.2342L30.4914 40.3376L33.0548 37.703Z" fill="#0070ED"/>
<path d="M33.2864 39.5187L32.7696 41.0676L31.239 42.4026L30.2062 41.3529L33.2864 39.5187Z" fill="#0070ED"/>
<path d="M26.1292 43.8986L28.0346 41.3881L29.8952 40.6898L33.1077 39.4834L30.2238 41.1036L28.4794 41.9042L26.1292 43.8986Z" fill="#0076F1"/>
<path d="M30.0459 41.4771L31.0788 42.5629L30.0636 43.8986L26.1116 44.1478L28.1589 42.4026L29.316 41.655L30.0459 41.4771Z" fill="#0081F4"/>
<path d="M38.8226 34.9257L41.6712 33.9288L41.3146 30.3686L38.5381 33.2525L38.4307 34.1428L38.8226 34.9257Z" fill="#0077EF"/>
<path d="M41.9917 34.1067L43.2017 34.4986L46.4774 33.573L43.9493 32.968L41.8491 31.8999L41.9917 34.1067Z" fill="#006CE8"/>
<path d="M52.9104 34.0715L53.6698 36.2555L57.1352 41.0022L57.6101 41.1926L55.687 36.8252L55.3312 35.0683L52.9104 34.0715Z" fill="#0079F2"/>
<path d="M53.6463 36.8487L55.1415 40.7655L55.9009 41.2639L56.9455 41.1683L53.6463 36.8487Z" fill="#0079F2"/>
<path d="M52.1033 36.8488L53.3611 36.54L54.785 40.3619L52.1033 36.8488Z" fill="#0079F2"/>
<path d="M46.9758 33.8105L47.1897 36.3026C47.1897 36.3026 51.3674 36.8487 53.1236 36.4209L53.2898 36.3731L46.9758 33.8098V33.8105Z" fill="#0069E6"/>
<path d="M38.2889 25.4786L40.8045 30.3209L41.469 29.7989L41.1845 26.6658L38.2889 25.4786Z" fill="#0071EC"/>
<path d="M33.4466 33.1217L35.8674 31.983L38.1462 32.7894L38.0036 33.9288L33.4466 33.1217Z" fill="#0070ED"/>
<path d="M38.4307 26.7371L38.5734 30.7009L36.3893 31.6977L38.3359 32.2675L38.6682 32.4101L40.4722 30.7487L38.4307 26.7371Z" fill="#0077EF"/>
<path d="M39.4989 20.1144L41.1014 23.0343L41.3146 20.7194L39.4989 20.1144Z" fill="#3DB4FC"/>
<path d="M32.1285 22.4999L31.239 23.9598L30.598 28.8021L33.304 26.9503L34.7279 23.4254L32.1285 22.4999Z" fill="#0081F5"/>
<path d="M30.5708 28.8462L31.2185 23.9525L31.2207 23.9488L32.1197 22.4742L34.7559 23.4129L33.3209 26.9643L33.3158 26.968L30.5708 28.8462ZM31.2589 23.9672L30.6245 28.758L33.2864 26.9371L34.7 23.4386L32.1374 22.5264L31.2582 23.9679L31.2589 23.9672Z" fill="#005499"/>
<path d="M12.7955 37.4185L13.0448 40.5516L16.4984 36.9914L12.7955 37.4185Z" fill="#007DF2"/>
<path d="M15.0266 10.7857L15.6324 12.7088L19.9755 9.71758L15.0266 10.7857Z" fill="#56C8FD"/>
<path d="M15.6206 12.7419L15.0002 10.7703L20.0755 9.67495L15.6206 12.7419ZM15.0538 10.8019L15.6434 12.6757L19.8763 9.76096L15.0538 10.8019Z" fill="#005499"/>
<path d="M30.9898 24.0312L28.7462 27.0929L30.2775 28.4103L30.9898 24.0312Z" fill="#0081F5"/>
<path d="M30.2922 28.4507L28.7183 27.0959L31.0244 23.9473L30.2922 28.45V28.4507ZM28.7749 27.09L30.2628 28.3706L30.9545 24.115L28.7749 27.0907V27.09Z" fill="#005499"/>
<path d="M20.4151 9.76537L21.4597 12.5662L24.5215 11.9729L20.4151 9.76537Z" fill="#3DB4FC"/>
<path d="M28.9954 27.9119L28.9602 30.1907C28.9602 30.1907 30.2062 30.44 31.0251 30.2973C31.0251 30.2973 30.4907 29.3358 29.9923 28.8734C29.4939 28.411 28.9954 27.9119 28.9954 27.9119Z" fill="#0073EC"/>
<path d="M9.12802 33.9649L11.7627 27.6627L6.88516 28.339L9.12802 33.9649Z" fill="#0071EC"/>
<path d="M16.0713 13.2785L16.3558 18.2156L18.8243 16.6013L16.0713 13.2785Z" fill="#007CF2"/>
<path d="M26.3483 10.3549C26.3483 10.3549 27.4929 9.5191 28.053 9.40222C28.6132 9.28533 29.1145 8.80897 29.2314 8.73399C29.3483 8.65901 30.5517 7.75628 30.7024 7.68129C30.8531 7.60631 31.7132 7.14613 31.8808 7.08805C32.0484 7.02998 32.4571 6.68667 32.5659 6.53671C32.5659 6.53671 31.8058 6.97925 31.5551 7.08805C31.3045 7.19685 30.5524 7.5725 30.168 7.86508C29.7835 8.15765 29.0903 8.69209 28.8896 8.7928C28.6889 8.89351 27.6612 9.34414 27.4774 9.49484C27.2936 9.64554 27.0599 9.74552 26.5166 10.0881L26.3497 10.3557L26.3483 10.3549Z" fill="#005ED2"/>
<path d="M16.1065 5.46931C16.1065 5.46931 18.8125 5.68323 19.2161 5.78982C19.2161 5.78982 20.1776 5.16056 20.557 4.87607C20.937 4.59158 22.6579 3.33305 23.4291 2.30093C24.2002 1.26809 24.6398 0.568249 24.6634 0.378588C24.6869 0.188926 24.3193 0.438133 24.1649 0.556488C24.0106 0.674842 23.1446 1.37541 21.9809 1.8503C20.8179 2.32519 17.8627 3.31026 17.4709 3.45287C17.0791 3.59548 16.1418 3.85645 15.6192 4.26003C15.0972 4.66362 14.0048 5.44652 14.0526 5.47078C14.1004 5.49504 15.7853 5.45902 16.1058 5.47078" fill="#0B93F8"/>
<path d="M16.3528 5.38624C17.0703 5.45755 17.787 5.52886 18.5045 5.60016C18.7258 5.44211 18.9478 5.28333 19.1691 5.12527C19.8138 4.6967 20.4982 4.17697 21.187 3.54697C21.4207 3.33231 21.6413 3.11839 21.8486 2.90594L17.3981 4.80476L16.3535 5.38624H16.3528Z" fill="#3DC0FF"/>
<path d="M18.5185 5.61119L20.5239 3.9851L21.3781 3.38009C21.3781 3.38009 19.2654 5.25539 18.5177 5.61119H18.5185Z" fill="#005ED2"/>
<path d="M15.1693 5.24363C15.1693 5.24363 16.9968 4.08066 17.4121 3.91453C17.8275 3.74839 18.7177 3.26174 19.6432 3.07208C20.5687 2.88241 21.7082 2.40753 21.9339 2.14656C21.9339 2.14656 21.3759 2.77582 21.0319 2.96548C20.6878 3.15514 19.9042 3.5352 19.3345 3.76089C18.7647 3.98657 16.4623 4.95987 16.4623 4.95987C16.283 5.04147 16.047 5.12895 15.7618 5.18555C15.5376 5.22966 15.3361 5.24436 15.1685 5.2451L15.1693 5.24363Z" fill="#9BDFFC"/>
<path d="M16.0352 5.19585L19.133 3.84322C19.133 3.84322 20.3555 3.32128 20.4504 3.28526C20.5452 3.24924 21.2811 3.04782 21.6846 2.7273C22.0882 2.40679 23.0498 1.48127 23.2512 1.36218C23.4526 1.24309 22.0287 2.71481 21.7317 2.86918C21.4347 3.02356 21.2215 3.17793 20.7466 3.3676C20.2717 3.55726 17.2695 4.86284 17.2695 4.86284C17.2695 4.86284 16.391 5.25466 16.0352 5.19511V5.19585Z" fill="#005ED2"/>
<path d="M35.3601 2.7648L34.4743 5.33625L33.9318 6.35587L32.5204 7.84596C32.5204 7.84596 31.6375 8.69062 31.1596 8.99716C30.6818 9.30371 29.1895 9.69112 29.1895 9.69112L28.0354 10.0035L26.6203 10.4314L24.8766 9.14125L24.5347 8.77001L24.2216 7.54456L25.272 7.53574L28.2596 7.1895L30.9075 6.59699C30.9075 6.59699 31.6169 6.34411 32.2351 6.10887C32.4468 6.02874 32.6475 5.95082 32.8056 5.88613C33.4268 5.63177 33.601 5.20246 33.601 5.20246L34.9374 3.26835L35.3601 2.76627V2.7648Z" fill="#028DF9"/>
<path d="M32.2351 6.10813C32.1653 6.20664 31.9933 6.4382 31.8558 6.54038C31.6786 6.67271 30.97 7.05865 30.6627 7.1917C30.3554 7.32476 29.3887 8.05768 29.3057 8.11722C29.2226 8.1775 28.8462 8.54874 28.6691 8.62152C28.4919 8.69429 27.8531 8.98467 27.3789 9.06038C26.9048 9.13537 26.743 8.92953 26.3321 8.79059C25.9212 8.65166 24.8479 7.64454 24.8479 7.64454L24.8839 7.53942L25.2706 7.53574L28.2581 7.1895L30.906 6.59699C30.906 6.59699 31.6154 6.34411 32.2337 6.10887L32.2351 6.10813Z" fill="#3AB3FA"/>
<path d="M26.149 9.93959C26.149 9.93959 27.1959 9.26548 27.4561 9.16036C27.7163 9.05524 28.6146 8.65974 28.7249 8.57153C28.8352 8.48331 29.0851 8.18044 29.2976 8.03636C29.51 7.89227 30.1386 7.37989 30.5561 7.16303C30.9737 6.94544 31.7139 6.58302 31.8007 6.48746C31.8874 6.39189 32.438 6.07873 32.438 6.07873C32.438 6.07873 32.5799 6.01404 32.3601 6.23751C32.1403 6.46099 31.8654 6.63742 31.8654 6.63742L31.5184 6.79841C31.5184 6.79841 30.3922 7.41739 30.1724 7.60117C29.9526 7.78495 29.7717 7.92094 29.5277 8.07385C29.2836 8.22676 28.9932 8.5061 28.8205 8.6024C28.647 8.6987 28.0008 8.96555 27.8435 9.06185C27.6862 9.15816 26.9775 9.59188 26.8048 9.68009C26.632 9.76831 26.1505 9.93886 26.1505 9.93886L26.149 9.93959Z" fill="#005ED2"/>
<path d="M27.5509 9.26181C27.5509 9.26181 28.1045 9.27137 28.2875 9.28386C28.4706 9.29636 28.8198 9.47132 29.1101 9.4081C29.4005 9.34488 30.2672 9.22432 30.2672 9.22432C30.2672 9.22432 29.3086 9.59408 28.919 9.55512C28.5294 9.51616 27.7259 9.40148 27.7259 9.40148L27.3686 9.34341L27.5509 9.26181Z" fill="#005ED2"/>
<path d="M27.9486 8.98246C27.9486 8.98246 28.2508 8.93247 28.511 8.8053C28.7712 8.67812 28.9249 8.65901 29.1505 8.66342C29.3762 8.66709 30.7061 8.73326 30.7061 8.73326C30.7061 8.73326 30.7994 8.8075 30.3723 8.81927C29.9452 8.83103 28.8683 8.74502 28.7896 8.80162C28.7109 8.85823 27.9486 8.9832 27.9486 8.9832V8.98246Z" fill="#005ED2"/>
<path d="M5.87216 38.2183C5.87216 38.2183 6.13019 38.1257 6.44997 38.2389C6.76975 38.3521 7.18289 38.8064 7.59602 38.7549C8.00916 38.7035 7.89522 38.6829 7.89522 38.6829C7.89522 38.6829 7.50266 38.6726 7.19318 38.4866C6.88369 38.3006 6.16107 37.7949 5.87216 38.2183Z" fill="#0052D3"/>
<path d="M5.18262 38.9644C5.18262 38.9644 5.52077 39.5003 5.86996 39.4423L5.18262 38.9644Z" fill="#0052D3"/>
<path d="M5.11058 39.2467C5.11058 39.2467 5.37081 39.6599 5.6406 39.615C5.56195 39.59 5.45094 39.5452 5.33406 39.4621C5.23041 39.3879 5.15836 39.3085 5.11058 39.2467Z" fill="#0052D3"/>
<path d="M4.47911 36.2364C4.47911 36.2364 4.85108 37.7125 4.85108 38.0433C4.85108 38.0433 5.01649 37.5273 4.47911 36.2364Z" fill="#0052D3"/>
<path d="M0.431519 32.9857C0.431519 32.9857 1.3813 33.2584 1.5592 33.2702C1.7371 33.2819 2.15244 33.4716 2.28329 33.6025C2.41414 33.7333 3.36319 34.1009 3.5058 34.1009C3.5058 34.1009 2.91256 34.1839 2.14068 33.662C2.14068 33.662 1.915 33.4959 1.48789 33.4246C1.06078 33.3532 0.46754 33.2231 0.431519 32.9857Z" fill="#0052D3"/>
<path d="M10.51 45.4291C10.51 45.4291 10.6144 44.3227 10.5725 43.9155C10.5306 43.5082 10.2594 42.6423 10.2594 42.6423C10.2594 42.6423 10.4579 42.8716 10.51 43.1223C10.5622 43.373 10.6666 44.0926 10.6769 44.3639C10.6872 44.6352 10.7394 45.4806 10.7394 45.4806L10.5409 45.5747L10.5093 45.4284L10.51 45.4291Z" fill="#0052D3"/>
<path d="M10.5961 41.9909C10.5961 41.9909 10.8335 41.7417 10.8217 41.3734C10.81 41.0059 10.8217 39.9017 10.9644 39.5577C11.107 39.2136 10.7151 39.9848 10.7034 40.5192C10.6916 41.0537 10.7387 41.4447 10.6799 41.5991C10.621 41.7535 10.5968 41.9909 10.5968 41.9909H10.5961Z" fill="#0052D3"/>
<path d="M27.265 43.0385C27.265 43.0385 27.3517 43.7993 27.1562 44.3749C27.1562 44.3749 27.6127 43.5928 27.265 43.0385Z" fill="#0052D3"/>
<path d="M15.9808 37.0465C15.9808 37.0465 14.229 38.9666 14.0901 39.1747C13.9512 39.3827 13.3381 40.145 13.3381 40.145C13.3381 40.145 14.1202 39.0166 14.1893 38.9078C14.2584 38.799 15.5655 37.2156 15.9808 37.0472V37.0465Z" fill="#004BCA"/>
<path d="M6.93882 27.8531C6.93882 27.8531 5.38624 25.9638 5.12454 25.5146C4.86284 25.0655 3.87116 24.2804 3.49698 22.8586C3.49698 22.8586 3.64694 23.9062 4.02039 24.4487C4.39383 24.9912 5.98463 26.8805 6.22796 27.3296C6.47129 27.7788 6.80797 28.2647 6.80797 28.2647L6.93882 27.8531Z" fill="#0059D8"/>
<path d="M29.621 43.9353C29.6548 43.7038 29.6688 43.509 29.6747 43.3627C29.6982 42.7974 29.6335 42.2291 29.6335 42.2291C29.6335 42.2291 29.5328 43.5714 29.621 43.9353Z" fill="#004FCD"/>
<path d="M48.2027 25.2265C48.1748 25.1779 48.152 25.128 48.1351 25.0787C48.1564 25.1243 48.1785 25.1735 48.2027 25.2265Z" fill="#0059D8"/>
<path d="M56.4376 24.148C56.3766 24.9052 55.7767 25.3992 55.5069 25.6131C55.2356 25.8278 54.7556 26.1196 53.894 26.2946C52.2797 26.6232 50.9072 26.2005 50.0788 25.9351C49.6039 25.783 48.9173 25.5242 48.1344 25.078C47.8293 24.1921 47.4558 23.546 47.2074 23.1718L47.6742 23.5026C47.6742 23.5026 49.4789 24.6251 51.5909 25.0045C52.7781 25.2176 53.2986 25.0596 53.5537 24.9581C54.1183 24.7347 55.032 24.1672 54.9085 23.5114C54.8563 23.2358 54.7652 23.0145 54.6747 22.8925C53.7161 21.5994 51.5644 21.6016 49.9604 20.2217C49.7134 20.0093 48.3292 18.8184 48.4755 17.3849C48.6034 16.1367 49.8281 15.3214 50.4228 14.9259C52.3973 13.6115 53.9984 14.1511 54.4483 13.0984C54.8328 12.1986 54.1359 10.6924 54.2638 10.6615C54.2667 10.6615 54.2726 10.66 54.2822 10.6659C54.4954 10.7887 56.353 13.6549 55.0563 15.439C54.8152 15.7713 54.5696 15.9551 54.1161 16.2131C51.8394 17.5091 49.7119 17.157 49.5451 17.8444C49.4421 18.2671 50.1383 18.8331 50.9366 19.4572C51.1542 19.627 51.5519 19.9211 52.1437 20.2497C53.2266 20.851 53.4559 20.7334 54.3645 21.2818C54.5968 21.4215 55.2224 21.8089 55.7377 22.5072C56.1443 23.0586 56.4883 23.5247 56.4383 24.1473L56.4376 24.148Z" fill="#0E90FA"/>
<path d="M54.0381 14.0048C54.0381 14.0048 53.342 14.4356 53.1398 14.5709C52.9384 14.7054 52.3598 14.9362 51.9188 15.1266C51.4777 15.317 51.2072 15.4662 51.0072 15.6471C50.8073 15.8279 49.881 16.8439 49.7472 16.9527C49.6134 17.0615 49.8347 16.5461 50.1126 16.316C50.3912 16.086 50.8734 15.4912 50.7705 15.4949C50.6676 15.4986 50.0883 15.4302 49.9141 15.3802C49.7399 15.3302 49.978 15.2626 50.1523 15.2898C50.3265 15.317 50.8602 15.4339 50.9866 15.417C51.1131 15.4001 51.3233 15.2075 51.563 15.1406C51.8019 15.0737 52.0592 14.8789 52.3444 14.8208C52.6296 14.7635 52.8774 14.615 52.9979 14.4724C53.1185 14.3297 53.6706 13.7431 53.7955 13.6917C53.9205 13.6402 54.0888 13.5417 54.2873 13.6027C54.4858 13.6637 54.1109 13.7938 53.9506 13.8122C53.7904 13.8306 53.6603 14.043 53.6603 14.043C53.6603 14.043 53.8507 13.9203 54.0389 14.0048H54.0381Z" fill="#0076F1"/>
<path d="M51.3358 25.4154C51.3358 25.4154 50.0185 25.2037 49.781 25.014C49.5436 24.8244 48.9856 24.4325 48.8195 24.409C48.6534 24.3855 48.3328 24.1716 48.3328 24.1716L49.2701 24.5156C49.2701 24.5156 49.484 24.753 50.0773 24.9662C50.6705 25.1802 51.3351 25.4154 51.3351 25.4154H51.3358Z" fill="#0076F1"/>
<path d="M52.6737 25.5396C52.6737 25.5396 53.4434 25.6168 53.6301 25.4882L52.6737 25.5396Z" fill="#0076F1"/>
<path d="M32.219 30.0489C32.219 30.0489 33.3687 31.0214 33.6341 31.3883C33.6341 31.3883 32.5858 30.7568 32.219 30.0489Z" fill="#004BCA"/>
<path d="M29.757 33.9435C29.757 33.9435 29.8026 32.8791 29.8945 32.3873C29.9864 31.8955 30.043 31.6551 30.0092 31.4375C29.9746 31.2199 29.9063 31.5522 29.9063 31.5522C29.9063 31.5522 29.7115 33.3025 29.6887 33.5775C29.6659 33.8524 29.757 33.9435 29.757 33.9435Z" fill="#0059D8"/>
<path d="M33.6546 39.2298C33.6546 39.2298 34.2317 38.9931 34.3545 38.8042C34.4772 38.6152 35.4983 38.1896 35.4983 38.1896C35.4983 38.1896 34.6096 38.3315 34.3074 38.6336C34.0046 38.9365 33.5414 39.1534 33.5414 39.1534C33.5414 39.1534 33.4753 39.2666 33.6546 39.2291V39.2298Z" fill="#0059D8"/>
<path d="M33.1158 37.4096C33.1158 37.4096 33.8083 37.2097 34.1714 36.9877C34.5346 36.7657 35.7277 36.0173 35.9997 35.8174C35.9997 35.8174 36.1438 35.6182 34.8022 36.4518C33.4606 37.2854 33.204 37.4155 33.1151 37.4096H33.1158Z" fill="#0059D8"/>
<path d="M30.5142 40.0311L29.5071 41.0544L27.8847 41.5881L28.225 41.1433L30.5142 40.0311Z" fill="#0076F1"/>
<path d="M28.7654 41.3506C28.9807 41.261 29.1557 41.172 29.2843 41.1022C29.7813 40.8309 30.2349 40.4832 30.2349 40.4832C30.2349 40.4832 29.0322 41.0882 28.7654 41.3506Z" fill="#0059D8"/>
<path d="M7.71512 19.1036C7.71512 19.1036 9.18757 18.2531 9.66981 17.9737C10.1521 17.6944 10.4696 17.504 10.6725 17.3393C10.8754 17.1747 11.3069 16.8571 11.5988 16.8064C11.8906 16.7556 11.4591 16.7432 10.9386 17.0475C10.4182 17.3518 7.71439 19.1036 7.71439 19.1036H7.71512Z" fill="#0059D8"/>
<path d="M3.33379 22.6535C3.33379 22.6535 4.73787 21.32 5.10911 20.9591C5.48034 20.5981 5.59061 20.4173 5.59061 20.4173C5.59061 20.4173 3.54477 22.1118 3.33452 22.6535H3.33379Z" fill="#0059D8"/>
<path d="M35.3756 31.489C35.3756 31.489 35.5829 31.597 35.9159 31.1464C36.2489 30.6958 36.9429 30.093 37.2126 29.9754C37.4832 29.8585 37.7713 29.7144 37.7713 29.7144C37.531 29.7614 37.2413 29.8445 36.9348 29.9945C36.1511 30.3782 35.7108 30.9773 35.5072 31.303C35.3491 31.3346 35.1911 31.3669 35.033 31.3986L35.3756 31.489Z" fill="#0059D8"/>
<path d="M38.1191 26.2637C38.1191 26.2637 37.4464 26.6673 37.1965 26.8408C36.9465 27.0143 36.687 27.2348 36.3408 27.3407C35.9945 27.4465 35.591 27.6774 35.2734 27.7832C34.9558 27.8891 35.8982 27.3796 36.0909 27.3025C36.2835 27.2253 36.8598 26.8989 37.1582 26.7254C37.4567 26.5519 38.0713 26.2446 38.1198 26.2637H38.1191Z" fill="#0076F1"/>
<path d="M1.91058 31.4625C1.91058 31.4625 2.37665 31.3008 2.48177 31.1765C2.5869 31.0523 3.52565 30.5245 3.52565 30.5245C3.52565 30.5245 2.76774 30.7171 2.61851 30.9031C2.46928 31.0891 2.2458 31.3008 1.91058 31.4618V31.4625Z" fill="#0059D8"/>
<path d="M58.3055 41.8138C58.3055 41.8138 58.0232 41.6594 57.8137 41.4587C57.6042 41.2588 56.7581 41.3404 56.3486 41.4043L55.9392 41.4683C55.9392 41.4683 55.8848 41.7506 56.1031 42.0233C56.3214 42.296 56.5853 42.8973 56.822 43.0973C57.0587 43.2973 57.2955 43.6339 57.3499 43.8986C57.4043 44.1632 57.5748 44.7035 57.5748 44.7035H57.7593L57.5866 42.9701L57.641 42.7878C57.641 42.7878 58.3871 42.0321 58.3055 41.8138Z" fill="#0076F1"/>
<path d="M20.9804 10.1954L23.7004 12.0523C23.7004 12.0523 23.8702 12.0722 23.7459 11.9803C23.6217 11.8884 21.0782 10.1756 21.0782 10.1756C21.0289 10.152 20.9892 10.1476 20.9782 10.1631C20.976 10.1667 20.9716 10.1748 20.9804 10.1954Z" fill="#0059D8"/>
<path d="M13.6542 57.7335C13.6542 60.9923 11.3878 62.9992 8.36423 62.9992H5.176C3.12133 62.9992 0.169815 61.8657 0.169815 58.1584V51.1689C0.169815 48.2166 2.31931 45.8091 5.81335 45.8091H8.41054C11.0077 45.8091 12.7316 47.4624 13.4873 49.6582L10.252 50.6734C9.85065 49.7994 9.02437 49.1863 8.10252 49.1863H6.30809C4.67832 49.1863 3.92335 50.4852 3.92335 51.7129V57.3564C3.92335 58.9149 4.27768 60.0242 6.04859 60.0242H8.05548C9.49558 60.0242 10.1572 58.9855 10.2513 57.7335H13.6534H13.6542Z" fill="white"/>
<path d="M27.2789 48.1461H19.7461V52.8685H26.3813V55.1592H19.7461V62.9985H15.7551V45.8077H27.2789V48.1454V48.1461Z" fill="white"/>
<path d="M42.3916 57.7336C42.3916 60.9924 40.1252 62.9993 37.1016 62.9993H33.9134C31.8587 62.9993 28.9072 61.8657 28.9072 58.1585V51.1689C28.9072 48.2167 31.0567 45.8092 34.5508 45.8092H37.1479C39.7451 45.8092 41.469 47.4625 42.2247 49.6583L38.9894 50.6735C38.5881 49.7994 37.7618 49.1863 36.8407 49.1863H35.0462C33.4172 49.1863 32.6615 50.4853 32.6615 51.7129V57.3565C32.6615 58.9149 33.0158 60.0242 34.7867 60.0242H36.7936C38.2337 60.0242 38.8953 58.9855 38.9894 57.7336H42.3916Z" fill="white"/>
<path d="M48.3181 45.8092H43.2649L47.5014 52.734L50.0413 49.0613L48.3181 45.8092ZM50.042 57.1433L53.2067 62.9993H58.3305L53.2067 53.672L57.5726 45.8253H53.7867M53.7963 45.8092L43.5869 63H46.9957L50.0413 57.144" fill="#0059D8"/>
<path d="M48.3181 45.8092H43.2649L47.5014 52.734L50.0413 49.0613L48.3181 45.8092Z" fill="white"/>
</g>
<defs>
<clipPath id="clip0_1_761">
<rect width="58.5003" height="63" fill="white"/>
</clipPath>
</defs>
</svg>
