<svg width="323" height="253" viewBox="0 0 323 253" fill="none" xmlns="http://www.w3.org/2000/svg">
<g clip-path="url(#clip0_1_1171)">
<path d="M52.3539 224.698L46.7236 202.014L34.7668 202.536L25.306 189.02L43.1252 184.843L50.8442 192.152L67.0377 191.92L52.3539 224.698ZM322.347 233.237C322.703 232.336 323.136 231.241 322.958 229.932C322.695 227.998 321.263 226.796 320.362 225.914C319.407 224.981 318.115 222.698 315.529 218.134C312.9 213.492 311.249 207.309 307.948 194.945C307.837 194.529 307.539 193.403 306.574 192.504C305.549 191.548 304.309 191.353 303.929 191.284C302.232 190.974 298.514 189.663 290.09 185.741C287.514 181.778 285.555 178.476 284.289 176.282C282.091 172.472 279.016 166.862 269.585 146.635C268.171 143.603 266.99 141.045 266.144 139.211C266.01 138.921 265.885 138.65 265.769 138.397C270.09 140.858 273.883 142.287 276.505 143.125C281.079 144.59 288.657 146.92 297.569 145.109C302.323 144.142 304.975 142.532 306.472 141.346C307.963 140.166 311.275 137.437 311.612 133.26C311.888 129.824 309.991 127.252 307.745 124.208C304.901 120.353 301.445 118.217 300.163 117.445C295.144 114.419 293.878 115.066 287.901 111.749C284.636 109.936 282.438 108.314 281.237 107.376C276.831 103.933 272.986 100.81 273.554 98.4765C274.475 94.6828 286.22 96.6266 298.79 89.4753C301.295 88.0499 302.646 87.0385 303.98 85.2037C311.138 75.3559 300.881 59.5385 299.706 58.8624C299.651 58.831 299.619 58.8345 299.604 58.838C298.898 59.0085 302.745 67.3196 300.622 72.287C298.137 78.0965 289.295 75.117 278.394 82.3703C275.111 84.5543 268.348 89.0531 267.644 95.94C266.835 103.852 274.48 110.424 275.843 111.596C284.701 119.211 296.581 119.2 301.874 126.336C302.375 127.011 302.879 128.23 303.165 129.752C303.847 133.373 298.804 136.501 295.686 137.736C294.28 138.292 291.404 139.168 284.849 137.99C273.191 135.894 263.225 129.701 263.225 129.701L260.649 127.876L251.166 121.158C246.81 118.794 242.455 116.43 238.1 114.067C232.091 110.805 225.387 109.033 218.55 108.898C207.407 108.679 196.266 108.461 185.125 108.241L160.55 96.7983C163.043 93.7468 164.976 88.2041 165.18 86.73C165.383 85.2548 163.348 84.1356 162.178 82.9665C161.007 81.7962 146.05 58.5063 146.05 58.5063C146.05 58.5063 155.666 55.2009 164.314 53.2686C172.964 51.3352 177.035 46.3017 182.224 41.826C187.415 37.3515 189.45 33.334 189.45 33.334C189.45 33.334 195.86 15.9416 195.809 14.4675C195.759 12.9922 184.718 28.7064 182.785 30.8416C180.851 32.9779 181.716 32.0118 170.523 36.0294C159.329 40.0469 134.855 41.267 133.635 40.5549C132.414 39.8428 106.006 32.775 106.006 32.775C106.006 32.775 105.549 33.029 106.821 32.0628C108.093 31.0967 127.376 15.8407 129.158 13.8575C130.938 11.8742 136.28 2.41487 136.28 2.41487C136.28 2.41487 137.196 0.990632 137.095 0.0755493C136.993 -0.839533 127.173 6.89054 123.052 9.38179C118.93 11.8742 96.3901 18.7391 91.3029 20.6203C86.2145 22.5026 77.4639 29.1135 76.039 30.8926C74.614 32.6729 78.3284 41.724 78.3284 41.724L56.3991 51.5394L29.7898 84.4916L19.41 118.106L17.0695 126.7L24.8036 153.398C24.8036 153.398 4.29804 174.908 1.80549 177.909C-0.68706 180.909 0.126384 183.402 0.126384 183.402C0.126384 183.402 2.77211 193.419 3.68767 195.962C4.60439 198.505 23.0223 212.133 23.0223 212.133L23.0722 212.447C25.8189 221.306 32.685 222.054 32.685 222.054L52.7856 225.299L31.4364 252.003L59.0274 253L72.0274 236.38L70.7498 228.128L96.208 200.719L166.684 187.161L182.41 207.202L168.65 219.679L155.674 225.77L142.602 244.731L166.781 243.454L172.876 234.612L186.342 224.885L215.347 207.099C215.025 202.946 214.703 198.792 214.38 194.64C219.384 192.911 224.386 191.182 229.39 189.452C239.786 193.741 250.183 198.03 260.579 202.319C269.161 202.794 277.743 203.268 286.324 203.742C296.087 216.878 299.853 221.323 301.181 222.406C301.393 222.579 302.286 223.272 303.064 224.491C303.842 225.71 304.148 226.895 304.285 227.643C300.232 234.898 296.178 242.154 292.125 249.408C301.47 249.103 310.815 248.798 320.159 248.493C320.029 247.882 319.911 247.255 319.803 246.612C319.255 243.326 319.131 240.263 319.244 237.509C320.3 236.608 321.566 235.216 322.347 233.237Z" fill="#0059D8"/>
<path d="M125.413 142.737L118.081 169.158L138.545 151.09L125.413 142.737Z" fill="#45B9FD"/>
<path d="M125.67 141.714L139.483 150.492L145.026 134.725L131.468 112.992L125.67 141.714Z" fill="#99E1FD"/>
<path d="M132.525 111.733L146.363 133.302L170.25 132.313L167.943 122.106L132.105 110.958L132.525 111.733Z" fill="#9DE2FC"/>
<path d="M88.7664 126.426L101.13 95.5305L130.411 110.549L111.349 121.191L88.7664 126.426Z" fill="#A4E4FB"/>
<path d="M64.5522 122.908L97.8686 99.4784L87.7359 125.997L63.7794 123.766L64.5522 122.908Z" fill="#A0E4FC"/>
<path d="M68.1588 148.911L86.1044 127.714L64.8957 125.139L68.1588 148.911Z" fill="#9AE1FC"/>
<path d="M66.9565 152.945L87.3924 127.971L89.6251 162.127L74.4272 157.065L66.9565 152.945Z" fill="#9CE2FB"/>
<path d="M91.585 159.46L109.064 123.461L120.895 142.166L91.4086 160.695" fill="#4FC0FA"/>
<path d="M89.4603 127.321L90.4338 159.553L107.393 122.874L89.4603 127.321Z" fill="#25A4FA"/>
<path d="M66.0967 120.725L87.0327 71.3312L89.4545 100.797L66.0967 120.725Z" fill="#1093F9"/>
<path d="M88.0377 70.6191L104.131 90.1211L118.231 71.1885L88.0377 70.6191Z" fill="#44B9FE"/>
<path d="M104.131 92.2563L119.228 72.7543L140.591 95.8146L104.131 92.2563Z" fill="#36B0FC"/>
<path d="M90.4594 164.426L71.2327 203.57L116.095 171.116L90.4594 164.426Z" fill="#0071EC"/>
<path d="M115.81 195.315L139.025 164.141L117.804 171.116L115.81 195.315Z" fill="#0072EA"/>
<path d="M119.941 168.554L141.018 150.76L158.109 151.756V167.842L137.601 163.429L119.941 168.554Z" fill="#40B5FB"/>
<path d="M70.931 175.826L52.1324 189.349L65.8043 155.613L70.931 175.826Z" fill="#0071EC"/>
<path d="M39.0546 154.724L63.017 124.463L64.9607 151.406L39.0546 154.724Z" fill="#0081F6"/>
<path d="M42.8596 106.501L39.0546 152.539L62.4507 123.816L42.8596 106.501Z" fill="#007FF7"/>
<path d="M62.6932 122.926L42.9408 105.125L85.9268 70.2526L62.6932 122.926Z" fill="#26A7FC"/>
<path d="M89.4081 69.6866L111.184 54.9606L117.337 69.6054L89.4081 69.6866Z" fill="#4EBEFB"/>
<path d="M100.712 31.9954L113.613 50.5105L132.01 42.1031L100.712 31.9954Z" fill="#99E0FE"/>
<path d="M88.8813 37.7399L102.157 36.0408L111.71 51.0092L88.8813 37.7399Z" fill="#97E1FD"/>
<path d="M113.775 52.2096L132.063 42.5821L137.333 65.7224L113.775 52.2096Z" fill="#99E2FA"/>
<path d="M139.923 69.2818L147.775 87.4872L163.48 85.6257L139.923 69.2818Z" fill="#88DAFC"/>
<path d="M119.36 70.2526L137.494 67.0167L142.757 79.6388L119.36 70.2526Z" fill="#56C8FD"/>
<path d="M79.0457 41.6913L83.5794 57.7928L111.265 52.452L86.818 38.2931L79.0457 41.6913Z" fill="#1290F8"/>
<path d="M31.1615 84.2537L57.874 51.7596L81.6879 58.5896L31.1615 84.2537Z" fill="#0083F9"/>
<path d="M30.7473 85.7023L42.9408 105.125L81.6879 58.5896L30.7473 85.7023Z" fill="#44B9FE"/>
<path d="M133.457 110.332L158.098 101.225L167.21 119.645L133.457 110.332Z" fill="#20A2F9"/>
<path d="M180.55 121.222L185.854 109.772L212.904 110.621L180.55 121.222Z" fill="#89E1FF"/>
<path d="M179.489 123.767L216.405 111.468L226.377 128.856L212.374 137.444L208.767 129.068L194.022 129.811L179.489 123.767Z" fill="#9EE3FC"/>
<path d="M159.44 100.76L168.563 120.057L182.565 108.394L159.44 100.76Z" fill="#2FADFC"/>
<path d="M69.8808 203.357L69.8309 202.984L68.2075 190.966L73.2285 174.422L89.8421 163.022L70.3148 203.976L69.8808 203.357Z" fill="#40B7FC"/>
<path d="M67.6493 154.47L71.1212 173.555L87.4249 162.278L67.6493 154.47Z" fill="#1897F7"/>
<path d="M50.5391 189.478L37.6447 156.702L65.4794 152.983L50.5391 189.478Z" fill="#0056DA"/>
<path d="M18.2416 126.651L30.268 86.5629L41.6748 105.027L18.2416 126.651Z" fill="#006BE7"/>
<path d="M18.4888 127.147L41.8605 105.585L38.0172 154.347L36.7768 158.003L28.0366 160.048L18.4888 127.147Z" fill="#006BE7"/>
<path d="M79.7895 31.448L99.868 31.9502L101.633 35.2997L87.8833 36.9814L79.7895 31.448Z" fill="#80D8FF"/>
<path d="M59.1644 51.3479L78.3088 43.1771L82.5396 57.2965L59.1644 51.3479Z" fill="#0086F8"/>
<path d="M77.0904 34.0042L79.1698 40.7403L85.6229 38.089L77.0904 34.0042Z" fill="#1290F8"/>
<path d="M134.778 48.7L138.078 66.2037L156.585 76.5283L144.896 59.1846L134.778 48.7Z" fill="#79D4FE"/>
<path d="M141.41 94.6351L122.766 75.6433L119.324 71.199L141.625 80.3011L146.286 87.5394L141.41 94.6351Z" fill="#25A6FA"/>
<path d="M141.912 96.3551L146.932 88.1854L156.826 97.574L141.912 96.3551Z" fill="#179DFC"/>
<path d="M130.655 109.757L140.98 97.0718L104.195 93.488L102.116 95.3518L130.655 109.757Z" fill="#0078F4"/>
<path d="M158.046 97.6448L163.782 91.4816L164.499 86.6081L148.294 88.2562L158.046 97.6448Z" fill="#1296FA"/>
<path d="M157.185 99.4366L142.27 97.4302L131.372 110.331L157.759 100.297L157.185 99.4366Z" fill="#0187F7"/>
<path d="M199.218 197.44L198.708 175.036L176.492 177.036L199.218 197.44Z" fill="#2AA9FA"/>
<path d="M71.4682 204.607L116.686 172.096L93.0192 202.292L71.4682 204.607Z" fill="#007AF3"/>
<path d="M116.182 174.411L96.7453 200.58L114.571 196.353L116.182 174.411Z" fill="#0075F0"/>
<path d="M91.1057 161.93L124.037 143.108L115.88 169.278L90.7031 162.836L91.1057 161.93Z" fill="#0075EF"/>
<path d="M117.491 195.146L139.849 164.849L162.508 170.082L170.563 169.177L138.74 188.805L117.491 195.146Z" fill="#0063DE"/>
<path d="M125.75 193.938L139.244 189.61L167.341 172.498L171.37 169.983L178.52 184.376L125.75 193.938Z" fill="#0079EF"/>
<path d="M169.355 161.024L179.627 183.973L195.035 175.216L169.355 161.024Z" fill="#0081F5"/>
<path d="M183.857 152.469L174.793 162.735L193.223 172.7L183.857 152.469Z" fill="#3CB1FB"/>
<path d="M193.625 131.028L185.368 149.147L195.539 174.008L209.84 169.68L210.444 145.524L208.027 130.425L193.625 131.028Z" fill="#0081F5"/>
<path d="M227.766 131.633L213.364 138.478L229.074 145.724L227.766 131.633Z" fill="#1DA0FB"/>
<path d="M245.49 118.145L244.986 135.759L249.618 155.79L256.064 141.396L245.49 118.145Z" fill="#95E0FD"/>
<path d="M251.431 157.098L262.408 132.035L264.724 142.805L265.934 170.183L251.431 157.098Z" fill="#7DD5FE"/>
<path d="M267.142 144.214L268.753 172.498L291.714 193.033L267.142 144.214Z" fill="#3EB4FD"/>
<path d="M267.947 174.411L258.984 184.879L293.325 198.568L267.947 174.411Z" fill="#37B0FC" stroke="#005499" stroke-width="2" stroke-miterlimit="10"/>
<path d="M258.682 183.571L266.638 173.907L250.122 158.407L251.129 163.54L258.682 183.571Z" fill="#7ED5FE"/>
<path d="M230.383 147.335L231.189 174.613L243.072 180.45L257.272 183.973L247.907 156.393L230.383 147.335Z" fill="#006CE8"/>
<path d="M229.578 131.23L229.981 145.221L246.699 154.783L229.578 131.23Z" fill="#189BF7"/>
<path d="M229.679 128.614L246.699 152.066L242.972 131.633L244.055 118.471L226.255 111.704L229.679 113.716V128.614Z" fill="#25A4FB"/>
<path d="M250.688 122.903L257.312 138.651L261.025 131.128L250.688 122.903Z" fill="#99E0FE"/>
<path d="M145.842 135.743L156.04 149.683L140.893 148.933L145.842 135.743Z" fill="#048EF7"/>
<path d="M146.741 134.394L157.69 149.382L169.087 133.494L146.741 134.394Z" fill="#048EF7"/>
<path d="M37.2293 159.074L49.2859 189.594L43.3887 182.782L28.4485 161.169L37.2293 159.074Z" fill="#0078F0"/>
<path d="M27.924 161.956L19.93 179.639L41.8164 181.08L27.924 161.956Z" fill="#007AF2"/>
<path d="M25.1715 154.489L26.875 159.86L18.4876 179.246L2.10614 179.115L25.1715 154.489Z" fill="#007AF2"/>
<path d="M1.4505 181.211L17.702 181.342L24.3859 211.6L11.4103 202.038L4.72632 196.012L3.41623 193.916L1.4505 181.211Z" fill="#0074EF"/>
<path d="M19.4055 180.686L41.6852 182.259L42.9953 183.7L24.9093 188.022L20.1911 188.284L19.4055 180.686Z" fill="#007AF3"/>
<path d="M20.7156 189.332L25.3027 211.077L34.3457 203.61L24.1237 189.332H20.7156Z" fill="#006EEC"/>
<path d="M25.0404 212.975L35.8531 202.955L42.1436 202.365C42.1436 202.365 45.7803 201.383 46.4685 203.741C47.1566 206.099 51.8748 223.586 51.8748 223.586C51.8748 223.586 47.1566 222.997 41.8489 222.211C36.5412 221.424 26.7114 221.13 25.0404 212.976V212.975Z" fill="#006BE6"/>
<path d="M67.1097 192.934L68.8794 204.33L71.3371 225.55C71.3371 225.55 70.649 227.319 70.8451 231.347C71.0412 235.375 71.4346 235.964 71.4346 235.964L59.0496 231.445L54.7247 222.701L67.1097 192.934Z" fill="#006DEA"/>
<path d="M54.1353 224.47C54.1353 224.47 58.1653 230.561 57.2811 231.937C56.3969 233.312 34.6741 250.308 34.6741 250.308L33.0031 250.8L54.1364 224.471L54.1353 224.47Z" fill="#006DEA"/>
<path d="M58.1653 232.919L69.9609 237.143C69.9609 237.143 65.3413 242.841 64.0637 244.511C62.7861 246.182 60.0336 250.308 58.5587 250.504L58.1653 232.919Z" fill="#007AF4"/>
<path d="M58.1653 232.919L58.5587 250.504L35.5583 251.29L58.1653 232.919Z" fill="#0082F6"/>
<path d="M169.532 187.433L184.079 206.099L212.387 194.9C212.387 194.9 211.993 189.006 204.326 187.63C196.66 186.255 181.916 184.683 181.916 184.683L169.531 187.434L169.532 187.433Z" fill="#0070ED"/>
<path d="M183.882 207.67L185.848 216.513L182.506 226.14L214.648 206.983L212.78 195.98L183.882 207.67Z" fill="#0070ED"/>
<path d="M182.506 208.064L183.489 216.513L168.352 222.603L182.506 208.064Z" fill="#0070ED"/>
<path d="M183.784 218.084L180.933 226.631L172.48 233.999L166.779 228.203L183.784 218.084Z" fill="#0070ED"/>
<path d="M144.27 242.252L154.788 228.399L165.063 224.543L182.801 217.888L166.878 226.828L157.244 231.249L144.27 242.252Z" fill="#0076F1"/>
<path d="M165.894 228.891L171.595 234.884L165.992 242.252L144.172 243.627L155.476 233.999L161.865 229.874L165.894 228.891Z" fill="#0081F4"/>
<path d="M214.352 192.738L230.079 187.236L228.114 167.588L212.78 183.504L212.191 188.415L214.352 192.738Z" fill="#0077EF"/>
<path d="M231.849 188.218L238.533 190.38L256.619 185.271L242.662 181.931L231.062 176.037L231.849 188.218Z" fill="#006CE8"/>
<path d="M292.135 188.022L296.329 200.074L315.463 226.271L318.084 227.319L307.469 203.217L305.503 193.524L292.135 188.022Z" fill="#0079F2"/>
<path d="M310.484 235.31L297.509 246.837L317.299 246.706C317.299 246.706 316.906 243.43 314.94 240.812C312.974 238.192 310.484 235.31 310.484 235.31Z" fill="#007DF2"/>
<path d="M307.6 228.367L308.91 234.261L296.591 246.182L294.364 248.146L306.42 227.056L307.6 228.367Z" fill="#007DF2"/>
<path d="M296.198 203.348L304.454 224.961L308.648 227.712L314.415 227.187L296.198 203.348Z" fill="#0079F2"/>
<path d="M287.68 203.348L294.626 201.645L302.489 222.734L287.68 203.348Z" fill="#0079F2"/>
<path d="M259.371 186.582L260.55 200.336C260.55 200.336 283.617 203.349 293.314 200.991L294.232 200.729L259.371 186.582Z" fill="#0069E6"/>
<path d="M211.404 140.604L225.296 167.326L228.965 164.445L227.393 147.153L211.404 140.604Z" fill="#0071EC"/>
<path d="M184.668 182.782L198.036 176.495L210.618 180.949L209.831 187.236L184.668 182.782Z" fill="#0070ED"/>
<path d="M212.191 147.546L212.977 169.421L200.92 174.923L211.666 178.068L213.501 178.853L223.462 169.683L212.191 147.546Z" fill="#0077EF"/>
<path d="M218.088 111.001L226.935 127.112L228.114 114.341L218.088 111.001Z" fill="#3DB4FC"/>
<path d="M177.395 124.165L172.48 132.221L168.941 158.943L183.882 148.726L191.745 129.274L177.395 124.165Z" fill="#0081F5"/>
<path d="M70.649 206.492L72.0252 223.782L91.093 204.134L70.649 206.492Z" fill="#007DF2"/>
<path d="M82.9678 59.5221L86.3098 70.132L110.293 53.628L82.9678 59.5221Z" fill="#56C8FD"/>
<path d="M171.104 132.614L158.719 149.511L167.173 156.782L171.104 132.614Z" fill="#0081F5"/>
<path d="M112.718 53.889L118.484 69.3468L135.39 66.0715L112.718 53.889Z" fill="#3DB4FC"/>
<path d="M160.095 154.031L159.899 166.605C159.899 166.605 166.779 167.981 171.301 167.194C171.301 167.194 168.353 161.89 165.6 159.336C162.848 156.782 160.095 154.031 160.095 154.031Z" fill="#0073EC"/>
<path d="M50.3999 187.433L64.9479 152.655L38.0149 156.389L50.3999 187.433Z" fill="#0071EC"/>
<path d="M88.735 73.2762L90.3074 100.521L103.938 91.6138L88.735 73.2762Z" fill="#007CF2"/>
<path d="M145.479 57.1422C145.479 57.1422 151.8 52.5308 154.891 51.8848C157.982 51.2388 160.751 48.6107 161.396 48.1955C162.041 47.7803 168.686 42.8001 169.517 42.3849C170.347 41.9697 175.099 39.4332 176.022 39.1108C176.944 38.7884 179.206 36.8967 179.805 36.0675C179.805 36.0675 175.606 38.5112 174.222 39.1108C172.838 39.7104 168.686 41.7853 166.563 43.3997C164.441 45.0142 160.612 47.9647 159.505 48.5191C158.398 49.0735 152.722 51.5624 151.707 52.3928C150.691 53.2232 149.4 53.7765 146.4 55.6669L145.478 57.1422H145.479Z" fill="#005ED2"/>
<path d="M88.9311 30.1803C88.9311 30.1803 103.871 31.3587 106.099 31.949C106.099 31.949 111.407 28.4777 113.504 26.9062C115.601 25.3347 125.102 18.3921 129.362 12.694C133.622 6.99592 136.046 3.13147 136.177 2.08417C136.308 1.03687 134.276 2.41123 133.425 3.06652C132.573 3.72181 127.79 7.5851 121.367 10.2051C114.944 12.8251 98.6286 18.2611 96.4657 19.0474C94.3027 19.8338 89.1261 21.2742 86.2436 23.501C83.3612 25.7279 77.3317 30.0504 77.594 30.1815C77.8562 30.3126 87.1615 30.1165 88.93 30.1815" fill="#0B93F8"/>
<path d="M90.2888 29.7222C94.2481 30.1154 98.2086 30.5085 102.168 30.9017C103.391 30.0284 104.614 29.1551 105.837 28.2817C109.396 25.9181 113.178 23.0499 116.977 19.5705C118.27 18.3863 119.486 17.2045 120.629 16.0342L96.056 26.513L90.29 29.7222H90.2888Z" fill="#3DC0FF"/>
<path d="M102.247 30.9667L113.322 21.9945L118.04 18.6542C118.04 18.6542 106.376 29.002 102.248 30.9667H102.247Z" fill="#005ED2"/>
<path d="M83.7546 28.9359C83.7546 28.9359 93.8455 22.5175 96.1396 21.6001C98.4325 20.6827 103.348 17.9978 108.458 16.9505C113.57 15.902 119.861 13.2832 121.106 11.8416C121.106 11.8416 118.026 15.3129 116.125 16.3602C114.225 17.4086 109.9 19.5044 106.755 20.7488C103.61 21.9933 90.8969 27.3644 90.8969 27.3644C89.9059 27.8167 88.6039 28.2992 87.0304 28.6088C85.7922 28.8524 84.6783 28.9312 83.7534 28.9359H83.7546Z" fill="#9BDFFC"/>
<path d="M88.5378 28.6737L105.641 21.207C105.641 21.207 112.39 18.3248 112.914 18.1288C113.439 17.9328 117.502 16.8194 119.729 15.0507C121.957 13.282 127.265 8.17427 128.379 7.51899C129.493 6.8637 121.63 14.9858 119.992 15.8371C118.353 16.6884 117.174 17.5397 114.553 18.5881C111.932 19.6366 95.3528 26.8401 95.3528 26.8401C95.3528 26.8401 90.5035 29.002 88.5378 28.6737Z" fill="#005ED2"/>
<path d="M195.234 15.2583L190.344 29.4485L187.346 35.0747L179.553 43.2965C179.553 43.2965 174.679 47.9566 172.039 49.6487C169.401 51.342 161.161 53.4772 161.161 53.4772L154.788 55.203L146.976 57.5644L137.347 50.4432L135.461 48.3962L133.731 41.6334L139.531 41.5835L156.027 39.671L170.646 36.3992C170.646 36.3992 174.562 35.0028 177.977 33.7073C179.146 33.2654 180.255 32.8351 181.129 32.4767C184.558 31.0711 185.52 28.7051 185.52 28.7051L192.898 18.0303L195.231 15.2583H195.234Z" fill="#028DF9"/>
<path d="M177.98 33.7061C177.593 34.2501 176.645 35.5258 175.887 36.0907C174.91 36.8202 170.997 38.9507 169.301 39.6849C167.603 40.4202 162.265 44.4621 161.809 44.7926C161.352 45.1232 159.274 47.1726 158.294 47.5738C157.315 47.9751 153.791 49.578 151.173 49.9932C148.555 50.4084 147.66 49.2695 145.394 48.504C143.126 47.7374 137.198 42.1785 137.198 42.1785L137.398 41.5986L139.534 41.58L156.03 39.6675L170.649 36.3957C170.649 36.3957 174.566 34.9993 177.981 33.7038L177.98 33.7061Z" fill="#3AB3FA"/>
<path d="M144.378 54.8504C144.378 54.8504 150.155 51.1321 151.592 50.5522C153.029 49.9723 157.99 47.7896 158.597 47.3036C159.204 46.8176 160.589 45.1464 161.761 44.3508C162.934 43.5551 166.403 40.7299 168.709 39.5306C171.015 38.3314 175.103 36.3307 175.58 35.803C176.057 35.2753 179.099 33.5461 179.099 33.5461C179.099 33.5461 179.883 33.19 178.67 34.4229C177.457 35.6557 175.937 36.63 175.937 36.63L174.023 37.5195C174.023 37.5195 167.805 40.9363 166.59 41.9511C165.375 42.966 164.377 43.7175 163.03 44.5584C161.683 45.3992 160.08 46.9417 159.124 47.4741C158.168 48.0064 154.599 49.4782 153.729 50.0094C152.86 50.5406 148.95 52.9333 147.992 53.4215C147.035 53.9098 144.379 54.8504 144.379 54.8504H144.378Z" fill="#005ED2"/>
<path d="M152.119 51.1124C152.119 51.1124 155.176 51.1634 156.187 51.2319C157.198 51.3003 159.124 52.2676 160.727 51.9173C162.33 51.567 167.117 50.9036 167.117 50.9036C167.117 50.9036 161.823 52.9437 159.671 52.7292C157.518 52.5146 153.082 51.8802 153.082 51.8802L151.11 51.5612L152.116 51.1124H152.119Z" fill="#005ED2"/>
<path d="M154.314 49.5675C154.314 49.5675 155.983 49.2915 157.418 48.591C158.854 47.8905 159.704 47.7849 160.951 47.807C162.197 47.829 169.539 48.1909 169.539 48.1909C169.539 48.1909 170.055 48.6014 167.697 48.6652C165.338 48.729 159.393 48.257 158.959 48.5666C158.525 48.8763 154.315 49.5675 154.315 49.5675H154.314Z" fill="#005ED2"/>
<path d="M32.4229 210.905C32.4229 210.905 33.8479 210.392 35.6152 211.019C37.3825 211.645 39.6615 214.152 41.9417 213.867C44.2219 213.582 43.5941 213.468 43.5941 213.468C43.5941 213.468 41.4277 213.411 39.7184 212.386C38.0091 211.361 34.0185 208.569 32.4229 210.905Z" fill="#0052D3"/>
<path d="M28.6156 215.026C28.6156 215.026 30.4815 217.984 32.4113 217.662L28.6156 215.026Z" fill="#0052D3"/>
<path d="M28.2153 216.583C28.2153 216.583 29.653 218.862 31.1407 218.615C30.7067 218.479 30.0916 218.232 29.4499 217.771C28.879 217.362 28.4787 216.922 28.2153 216.585V216.583Z" fill="#0052D3"/>
<path d="M24.7306 199.969C24.7306 199.969 26.7822 208.116 26.7822 209.939C26.7822 209.939 27.6943 207.09 24.7306 199.969Z" fill="#0052D3"/>
<path d="M2.38464 182.03C2.38464 182.03 7.62735 183.536 8.61022 183.601C9.59308 183.666 11.8872 184.714 12.6078 185.435C13.3284 186.155 18.5711 188.186 19.3567 188.186C19.3567 188.186 16.0797 188.644 11.8211 185.763C11.8211 185.763 10.5759 184.846 8.21684 184.454C5.85774 184.062 2.58191 183.34 2.38464 182.031V182.03Z" fill="#0052D3"/>
<path d="M58.0296 250.701C58.0296 250.701 58.6063 244.596 58.3754 242.351C58.1444 240.105 56.6464 235.325 56.6464 235.325C56.6464 235.325 57.7418 236.591 58.0296 237.974C58.3173 239.356 58.8941 243.33 58.9521 244.827C59.0101 246.324 59.2979 250.989 59.2979 250.989L58.2025 251.507L58.0296 250.701Z" fill="#0052D3"/>
<path d="M58.5053 231.723C58.5053 231.723 59.8154 230.348 59.7504 228.318C59.6854 226.289 59.7504 220.197 60.5372 218.298C61.3239 216.398 59.1609 220.655 59.096 223.603C59.031 226.55 59.2921 228.711 58.9648 229.563C58.6376 230.414 58.5065 231.725 58.5065 231.725L58.5053 231.723Z" fill="#0052D3"/>
<path d="M150.539 237.506C150.539 237.506 151.02 241.704 149.939 244.881C149.939 244.881 152.459 240.565 150.539 237.506Z" fill="#0052D3"/>
<path d="M88.2361 204.439C88.2361 204.439 78.5629 215.036 77.7982 216.183C77.0335 217.33 73.6451 221.536 73.6451 221.536C73.6451 221.536 77.963 215.309 78.3448 214.708C78.7266 214.107 85.9408 205.368 88.2361 204.439Z" fill="#004BCA"/>
<path d="M38.3096 153.706C38.3096 153.706 29.7377 143.281 28.2918 140.803C26.846 138.326 21.3723 133.991 19.3068 126.146C19.3068 126.146 20.133 131.926 22.1986 134.92C24.2641 137.913 33.0425 148.338 34.3851 150.816C35.7277 153.293 37.5867 155.977 37.5867 155.977L38.3096 153.706Z" fill="#0059D8"/>
<path d="M163.548 242.457C163.736 241.182 163.812 240.103 163.846 239.297C163.975 236.178 163.617 233.042 163.617 233.042C163.617 233.042 163.062 240.45 163.548 242.457Z" fill="#004FCD"/>
<path d="M266.144 139.211C265.988 138.942 265.863 138.669 265.769 138.397C265.885 138.65 266.01 138.921 266.144 139.211Z" fill="#0059D8"/>
<path d="M311.612 133.26C311.275 137.436 307.963 140.165 306.472 141.346C304.975 142.531 302.323 144.142 297.569 145.108C288.657 146.92 281.079 144.59 276.505 143.125C273.883 142.287 270.09 140.858 265.769 138.397C264.086 133.509 262.023 129.941 260.649 127.876L263.225 129.7C263.225 129.7 273.191 135.894 284.849 137.99C291.404 139.168 294.28 138.292 295.686 137.736C298.804 136.5 303.847 133.372 303.165 129.752C302.879 128.23 302.375 127.011 301.874 126.336C296.581 119.2 284.701 119.211 275.843 111.596C274.48 110.423 266.835 103.852 267.644 95.9399C268.348 89.053 275.111 84.5541 278.394 82.3702C289.295 75.1168 298.137 78.0963 300.622 72.2869C302.745 67.3195 298.898 59.0083 299.604 58.8378C299.619 58.8344 299.651 58.8309 299.706 58.8622C300.881 59.5384 311.138 75.3557 303.98 85.2036C302.646 87.0384 301.295 88.0497 298.79 89.4751C286.22 96.6264 274.475 94.6826 273.554 98.4763C272.986 100.81 276.831 103.933 281.237 107.375C282.438 108.314 284.636 109.936 287.901 111.749C293.878 115.066 295.144 114.419 300.163 117.445C301.445 118.217 304.901 120.352 307.745 124.208C309.991 127.252 311.888 129.823 311.612 133.26Z" fill="#0E90FA"/>
<path d="M298.362 77.2833C298.362 77.2833 294.518 79.662 293.404 80.4066C292.29 81.1512 289.1 82.4235 286.663 83.4743C284.226 84.5262 282.734 85.3485 281.63 86.346C280.527 87.3434 275.414 92.951 274.675 93.5518C273.936 94.1526 275.156 91.3088 276.694 90.0399C278.232 88.7711 280.896 85.4866 280.325 85.5098C279.754 85.533 276.561 85.1537 275.595 84.8753C274.63 84.597 275.95 84.2259 276.91 84.3778C277.87 84.5297 280.819 85.1723 281.515 85.0806C282.212 84.989 283.376 83.9255 284.696 83.5543C286.017 83.1832 287.435 82.1092 289.011 81.7914C290.586 81.4736 291.952 80.656 292.619 79.8662C293.287 79.0763 296.334 75.8405 297.022 75.5587C297.71 75.2768 298.641 74.7306 299.735 75.0681C300.829 75.4056 298.76 76.1235 297.875 76.2232C296.989 76.323 296.274 77.4955 296.274 77.4955C296.274 77.4955 297.327 76.8182 298.362 77.2844V77.2833Z" fill="#0076F1"/>
<path d="M283.443 140.254C283.443 140.254 276.171 139.086 274.861 138.038C273.55 136.991 270.47 134.829 269.553 134.698C268.636 134.567 266.867 133.389 266.867 133.389L272.043 135.288C272.043 135.288 273.222 136.598 276.499 137.777C279.776 138.957 283.443 140.255 283.443 140.255V140.254Z" fill="#0076F1"/>
<path d="M290.828 140.938C290.828 140.938 295.078 141.362 296.11 140.655L290.828 140.938Z" fill="#0076F1"/>
<path d="M177.891 165.822C177.891 165.822 184.239 171.19 185.703 173.212C185.703 173.212 179.914 169.726 177.891 165.822Z" fill="#004BCA"/>
<path d="M164.297 187.315C164.297 187.315 164.55 181.443 165.055 178.728C165.561 176.012 165.876 174.687 165.686 173.486C165.496 172.286 165.118 174.117 165.118 174.117C165.118 174.117 164.043 183.779 163.918 185.294C163.792 186.81 164.297 187.315 164.297 187.315Z" fill="#0059D8"/>
<path d="M185.82 216.491C185.82 216.491 189.004 215.186 189.683 214.143C190.362 213.101 195.999 210.752 195.999 210.752C195.999 210.752 191.092 211.535 189.422 213.204C187.752 214.873 185.194 216.073 185.194 216.073C185.194 216.073 184.828 216.699 185.82 216.491Z" fill="#0059D8"/>
<path d="M182.844 206.444C182.844 206.444 186.666 205.339 188.674 204.117C190.681 202.894 197.265 198.763 198.769 197.659C198.769 197.659 199.563 196.558 192.157 201.159C184.752 205.76 183.335 206.476 182.844 206.443V206.444Z" fill="#0059D8"/>
<path d="M168.478 220.912L162.92 226.557L153.96 229.501L155.839 227.048L168.478 220.912Z" fill="#0076F1"/>
<path d="M158.824 228.193C160.014 227.697 160.98 227.207 161.687 226.821C164.429 225.326 166.935 223.405 166.935 223.405C166.935 223.405 160.295 226.743 158.822 228.192L158.824 228.193Z" fill="#0059D8"/>
<path d="M42.5961 105.421C42.5961 105.421 50.7259 100.727 53.3891 99.1873C56.0522 97.6471 57.8044 96.5951 58.9254 95.6847C60.0463 94.7742 62.4298 93.0229 64.0416 92.7423C65.6534 92.4616 63.2711 92.392 60.3967 94.0737C57.5224 95.7554 42.595 105.421 42.595 105.421H42.5961Z" fill="#0059D8"/>
<path d="M18.4075 125.014C18.4075 125.014 26.159 117.654 28.2083 115.661C30.2576 113.669 30.8656 112.672 30.8656 112.672C30.8656 112.672 19.5703 122.025 18.4075 125.014Z" fill="#0059D8"/>
<path d="M195.321 173.769C195.321 173.769 196.465 174.366 198.304 171.881C200.143 169.397 203.973 166.066 205.465 165.42C206.957 164.774 208.548 163.978 208.548 163.978C207.221 164.237 205.624 164.695 203.928 165.524C199.602 167.642 197.169 170.948 196.048 172.744C195.176 172.92 194.303 173.097 193.43 173.272L195.319 173.769H195.321Z" fill="#0059D8"/>
<path d="M210.469 144.936C210.469 144.936 206.753 147.164 205.373 148.118C203.993 149.073 202.56 150.293 200.649 150.876C198.738 151.459 196.509 152.733 194.758 153.316C193.007 153.9 198.208 151.088 199.269 150.664C200.331 150.239 203.515 148.436 205.161 147.481C206.806 146.527 210.203 144.829 210.469 144.934V144.936Z" fill="#0076F1"/>
<path d="M10.5504 173.626C10.5504 173.626 13.123 172.735 13.7056 172.048C14.2881 171.362 19.467 168.449 19.467 168.449C19.467 168.449 15.2825 169.512 14.4598 170.541C13.6371 171.569 12.4024 172.735 10.5504 173.626Z" fill="#0059D8"/>
<path d="M321.927 230.748C321.927 230.748 320.369 229.894 319.212 228.789C318.056 227.684 313.384 228.136 311.122 228.488L308.86 228.839C308.86 228.839 308.559 230.395 309.766 231.903C310.972 233.411 312.429 236.725 313.735 237.83C315.042 238.935 316.349 240.793 316.65 242.25C316.952 243.707 317.893 246.691 317.893 246.691H318.912L317.957 237.127L318.259 236.123C318.259 236.123 322.379 231.954 321.927 230.748Z" fill="#0076F1"/>
<path d="M115.84 56.2642L130.86 66.5122C130.86 66.5122 131.799 66.6201 131.113 66.1156C130.427 65.6099 116.382 56.1552 116.382 56.1552C116.108 56.0265 115.889 56.0021 115.829 56.0868C115.817 56.1053 115.795 56.1529 115.841 56.2631L115.84 56.2642Z" fill="#0059D8"/>
</g>
<defs>
<clipPath id="clip0_1_1171">
<rect width="323" height="253" fill="white"/>
</clipPath>
</defs>
</svg>
